<svg xmlns="http://www.w3.org/2000/svg" width="16" height="16" viewBox="0 0 16 16"><g transform="translate(1790.435 -416.437)"><rect width="16" height="16" transform="translate(-1790.435 416.437)" fill="#e93740"/><path d="M-1529.809,630.067a5.04,5.04,0,0,0-3.24-.962,5.829,5.829,0,0,0-3.125.807,2.908,2.908,0,0,0-1.431,2.592,2.786,2.786,0,0,0,1.069,2.3,3.949,3.949,0,0,0,2.566.776,3.413,3.413,0,0,0,2.286-.7l0,0a.4.4,0,0,0,.172-.327.424.424,0,0,0-.436-.411.449.449,0,0,0-.28.1l0,0a2.216,2.216,0,0,1-1.705.569,2.976,2.976,0,0,1-1.974-.667,2.064,2.064,0,0,1-.74-1.677,2.272,2.272,0,0,1,1-1.832,4.2,4.2,0,0,1,2.632-.73,3.937,3.937,0,0,1,2.615.824,2.809,2.809,0,0,1,.987,2.287,2.787,2.787,0,0,1-1.513,2.536,6.283,6.283,0,0,1-3,.7.168.168,0,0,0-.05.009.371.371,0,0,0-.345.361.369.369,0,0,0,.317.357.167.167,0,0,0,.081.021h1.681q1.355,0,1.252.8a.187.187,0,0,1,0,.023.886.886,0,0,1-.655.573,4.394,4.394,0,0,1-1.02.169,3.383,3.383,0,0,1-1.151-.14,2.074,2.074,0,0,1-.724-.357,1.343,1.343,0,0,1-.468-.9c0-.006,0-.013,0-.019a.46.46,0,0,0-.472-.446.46.46,0,0,0-.472.446.418.418,0,0,0,.007.073,2.023,2.023,0,0,0,.7,1.4,3.515,3.515,0,0,0,2.549.714,5.716,5.716,0,0,0,.921-.093,2.793,2.793,0,0,0,.773-.233,1.751,1.751,0,0,0,1.036-1.024,1.137,1.137,0,0,0,.049-.31.957.957,0,0,0-.4-.831,2.092,2.092,0,0,0-.4-.225.148.148,0,0,1,.008-.279,3.474,3.474,0,0,0,1.5-1.087,3.41,3.41,0,0,0,.757-2.3A3.5,3.5,0,0,0-1529.809,630.067Z" transform="translate(-249.402 -209.785)" fill="#fff" stroke="#fff" stroke-miterlimit="10" stroke-width="0.5"/></g></svg>